HIERARCHY
ROOT root
{
	OFFSET 0.000000 0.000000 0.000000
	CHANNELS 6 Xposition Yposition Zposition Zrotation Yrotation Xrotation
	JOINT lhip
	{
		OFFSET 0.058581 -0.082280 -0.017664
		CHANNELS 3 Zrotation Yrotation Xrotation
		JOINT lknee
		{
			OFFSET 0.043451 -0.386469 0.008037
			CHANNELS 3 Zrotation Yrotation Xrotation
			JOINT lankle
			{
				OFFSET -0.014790 -0.426874 -0.037428
				CHANNELS 3 Zrotation Yrotation Xrotation
				JOINT ltoe
				{
					OFFSET 0.041054 -0.060286 0.122042
					CHANNELS 3 Zrotation Yrotation Xrotation
					End Site
					{
						OFFSET 0.000000 0.000000 0.000000
					}
				}
			}
		}
	}
	JOINT rhip
	{
		OFFSET -0.060310 -0.090513 -0.013543
		CHANNELS 3 Zrotation Yrotation Xrotation
		JOINT rknee
		{
			OFFSET -0.043257 -0.383688 -0.004843
			CHANNELS 3 Zrotation Yrotation Xrotation
			JOINT rankle
			{
				OFFSET 0.019056 -0.420046 -0.034562
				CHANNELS 3 Zrotation Yrotation Xrotation
				JOINT rtoe
				{
					OFFSET -0.034840 -0.062106 0.130323
					CHANNELS 3 Zrotation Yrotation Xrotation
					End Site
					{
						OFFSET 0.000000 0.000000 0.000000
					}
				}
			}
		}
	}
	JOINT lowerback
	{
		OFFSET 0.004439 0.124404 -0.038385
		CHANNELS 3 Zrotation Yrotation Xrotation
		JOINT upperback
		{
			OFFSET 0.004488 0.137956 0.026820
			CHANNELS 3 Zrotation Yrotation Xrotation
			JOINT chest
			{
				OFFSET -0.002265 0.056032 0.002855
				CHANNELS 3 Zrotation Yrotation Xrotation
				JOINT lowerneck
				{
					OFFSET -0.013390 0.211636 -0.033468
					CHANNELS 3 Zrotation Yrotation Xrotation
					JOINT upperneck
					{
						OFFSET 0.010113 0.088937 0.050410
						CHANNELS 3 Zrotation Yrotation Xrotation
						End Site
						{
							OFFSET 0.000000 0.000000 0.000000
						}
					}
				}
				JOINT lclavicle
				{
					OFFSET 0.071702 0.114000 -0.018898
					CHANNELS 3 Zrotation Yrotation Xrotation
					JOINT lshoulder
					{
						OFFSET 0.122921 0.045205 -0.019046
						CHANNELS 3 Zrotation Yrotation Xrotation
						JOINT lelbow
						{
							OFFSET 0.255332 -0.015649 -0.022946
							CHANNELS 3 Zrotation Yrotation Xrotation
							JOINT lwrist
							{
								OFFSET 0.265709 0.012698 -0.007375
								CHANNELS 3 Zrotation Yrotation Xrotation
								End Site
								{
									OFFSET 0.000000 0.000000 0.000000
								}
							}
						}
					}
				}
				JOINT rclavicle
				{
					OFFSET -0.082954 0.112472 -0.023707
					CHANNELS 3 Zrotation Yrotation Xrotation
					JOINT rshoulder
					{
						OFFSET -0.113228 0.046853 -0.008472
						CHANNELS 3 Zrotation Yrotation Xrotation
						JOINT relbow
						{
							OFFSET -0.260127 -0.014369 -0.031269
							CHANNELS 3 Zrotation Yrotation Xrotation
							JOINT rwrist
							{
								OFFSET -0.269108 0.006794 -0.006027
								CHANNELS 3 Zrotation Yrotation Xrotation
								End Site
								{
									OFFSET 0.000000 0.000000 0.000000
								}
							}
						}
					}
				}
			}
		}
	}
}
MOTION
Frames: 8
Frame Time: 0.033333
0.854157 0.843525 1.066264 89.531004 -4.926579 85.079794 -1.306529 2.026961 6.072438 -2.371091 -6.556247 0.896267 4.982872 3.278658 -10.997736 0.000000 -0.000000 0.000000 -7.956446 -3.348037 7.031047 -1.192094 0.170346 0.802284 5.511993 -1.372119 -13.625458 0.000000 -0.000000 0.000000 -2.998507 3.043869 1.800350 0.791586 -4.292836 7.073194 -3.728369 -0.868874 -0.847381 -2.008837 -25.073403 4.100082 9.615310 -42.531373 5.385584 -27.795894 1.337068 6.454455 -54.431647 -9.060382 12.558471 7.749810 -30.133560 9.509315 -20.189686 -12.624725 -6.973047 28.661284 3.183902 1.274911 61.613727 -1.025844 8.131892 -21.370293 25.454167 -10.917285 21.069337 6.612131 -9.964199 
0.849170 0.844610 1.063387 89.723108 -4.161559 85.970001 -0.417780 1.843761 4.432674 -2.603326 -6.242120 1.454425 4.815182 3.026531 -11.761785 0.000000 -0.000000 0.000000 -6.904986 -2.860309 5.634615 -1.190476 0.239648 1.213604 5.172336 -2.635539 -15.103150 0.000000 -0.000000 0.000000 -2.107967 2.313968 1.415087 0.963711 -4.192324 6.288009 -3.065089 -1.236185 -0.467764 0.906506 -25.763081 3.170809 6.431337 -37.809219 2.467993 -28.610162 1.609836 6.643694 -54.264238 -9.089678 11.947994 7.583700 -30.630424 10.313489 -20.782452 -12.689490 -7.174856 26.786121 3.225591 1.990020 62.987124 -0.368608 8.850405 -22.481306 24.847167 -11.554157 20.560874 6.601363 -10.797715 
0.844917 0.846048 1.061673 89.702254 -3.996021 86.068589 -0.313382 1.924824 4.098574 -2.589749 -6.096888 1.375254 4.628367 2.991483 -12.209364 0.000000 -0.000000 0.000000 -6.762104 -2.717693 4.968336 -1.072354 0.329645 1.915391 5.086332 -2.980758 -17.060938 0.000000 -0.000000 0.000000 -1.987996 2.151815 1.570378 1.097439 -4.312565 6.244732 -3.010337 -1.296606 -0.372567 1.095846 -25.505643 2.948831 6.016942 -37.617119 2.624360 -28.600675 1.343996 6.785596 -54.203562 -9.277334 12.048033 7.667179 -30.638869 10.744355 -20.936715 -13.000914 -7.031345 26.765543 3.415054 2.052171 62.947921 -0.218862 8.717350 -22.863723 24.544124 -11.916066 20.170797 6.835617 -11.014069 
0.840474 0.847379 1.059753 89.520268 -3.733471 86.139139 0.017184 2.354795 4.039491 -2.623254 -6.066975 1.039911 4.169488 2.873595 -13.371747 0.000000 -0.000000 0.000000 -6.615759 -2.715657 4.353530 -0.909788 0.594907 2.554564 5.182481 -2.998925 -19.123140 0.000000 -0.000000 0.000000 -1.891881 2.020650 1.707567 1.239603 -4.458123 6.188279 -2.941215 -1.375163 -0.204534 1.444421 -24.975798 2.953307 6.017595 -37.544629 2.526091 -28.388238 1.050830 6.643399 -54.172492 -9.342396 12.165659 7.341831 -30.284668 11.228526 -20.912485 -13.008349 -6.786610 26.767912 3.330905 1.906382 62.942222 -0.168111 8.636466 -22.992545 24.788472 -12.144436 19.991778 7.007269 -11.234786 
0.837721 0.848099 1.058822 89.534007 -3.559409 86.174928 0.248294 2.508394 4.037124 -2.649954 -6.091046 0.872269 3.696864 2.875635 -14.256994 0.000000 -0.000000 0.000000 -6.489658 -2.579163 4.077824 -0.783085 0.705055 2.811870 5.254825 -3.196396 -20.268600 0.000000 -0.000000 0.000000 -1.817262 1.887315 1.787707 1.328340 -4.558082 6.070428 -2.941712 -1.457807 -0.087786 1.614555 -24.710196 2.859679 5.664301 -37.548947 2.852454 -28.253053 0.867539 6.581087 -54.115290 -9.431529 12.239134 7.097444 -29.882536 11.537976 -20.901671 -13.087578 -6.722587 26.741338 3.320593 1.853509 63.049966 -0.252504 8.749409 -23.053054 25.165308 -12.264632 19.700241 7.083299 -11.600523 
0.834416 0.849194 1.057912 89.642440 -3.355354 86.157869 0.499910 2.787631 4.199816 -2.614699 -6.504251 0.501281 3.084034 2.862441 -15.302341 0.000000 -0.000000 0.000000 -6.328946 -2.404188 3.887228 -0.652767 0.821588 3.025068 5.271474 -3.356581 -21.496455 0.000000 -0.000000 0.000000 -1.753758 1.658102 1.949703 1.427445 -4.717560 5.940493 -2.925103 -1.540470 -0.033888 1.880178 -24.259981 2.850919 5.616399 -37.298114 2.897701 -28.298745 0.664284 6.576067 -53.848449 -9.501962 12.166551 6.813691 -29.439298 11.835515 -20.883853 -13.001109 -6.551907 26.775457 3.184087 1.713943 63.205644 -0.403913 8.785641 -23.036791 25.758198 -12.248882 19.500379 7.186856 -11.897937 
0.831355 0.850245 1.057253 89.636110 -3.106243 86.176852 0.745913 2.910396 4.255901 -2.575586 -6.748603 0.253654 2.698371 2.980430 -16.240922 0.000000 -0.000000 0.000000 -6.097244 -2.141592 3.696752 -0.563234 0.880312 3.162547 5.135077 -3.570630 -22.451558 0.000000 -0.000000 0.000000 -1.622413 1.483253 2.109455 1.505311 -4.801611 5.781870 -2.887318 -1.617764 0.088635 2.115872 -23.895423 2.765151 5.502511 -37.095734 2.817345 -28.350569 0.578931 6.484230 -53.716915 -9.562495 12.125700 6.647972 -29.072200 11.913362 -20.922337 -12.953347 -6.541136 26.778350 2.950090 1.525545 63.336984 -0.457200 8.910447 -22.832311 26.319240 -12.020876 19.341223 7.379867 -12.213295 
0.828717 0.851169 1.056879 89.504786 -2.862346 86.236692 0.991985 2.981615 4.140766 -2.597824 -6.849546 0.344278 2.426024 3.082154 -17.470473 0.000000 -0.000000 0.000000 -5.879367 -1.892174 3.429480 -0.452765 0.886532 3.288107 5.079827 -3.631333 -23.196851 0.000000 -0.000000 0.000000 -1.512876 1.383198 2.167272 1.574816 -4.827201 5.706223 -2.845370 -1.659381 0.072214 2.309856 -23.606439 2.681265 5.398604 -36.936375 2.901803 -28.329254 0.451192 6.525366 -53.805114 -9.485487 12.050837 6.805192 -28.841700 11.739198 -20.976186 -13.012141 -6.335181 26.771693 2.836795 1.454993 63.520738 -0.568291 8.973115 -22.602544 26.764581 -11.691993 19.160045 7.442409 -12.545795 
